<?xml version="1.0" standalone="no"?>
<!DOCTYPE svg PUBLIC "-//W3C//DTD SVG 20010904//EN"
 "http://www.w3.org/TR/2001/REC-SVG-20010904/DTD/svg10.dtd">
<svg version="1.0" xmlns="http://www.w3.org/2000/svg"
 width="1920.000000pt" height="1920.000000pt" viewBox="0 0 1920.000000 1920.000000"
 preserveAspectRatio="xMidYMid meet">

<g transform="translate(0.000000,1920.000000) scale(0.100000,-0.100000)"
fill="#000000" stroke="none">
<path d="M4170 14205 l0 -165 -165 0 -165 0 0 -2635 0 -2635 165 0 165 0 2
-657 3 -658 163 -3 162 -2 0 -160 0 -160 163 -2 162 -3 3 -162 2 -163 165 0
165 0 0 -165 0 -165 163 -2 162 -3 2 -160 2 -160 160 -3 161 -2 2 -163 3 -162
162 -3 163 -2 2 -163 3 -162 163 -3 162 -2 0 -165 0 -165 165 0 165 0 0 -165
0 -165 4118 2 4117 3 3 162 2 163 159 0 c97 0 161 4 163 10 2 5 2 156 0 335
l-3 325 -159 0 -160 0 -2 163 -3 162 -162 3 -163 2 -2 163 c-2 121 -6 162 -15
163 -7 1 -80 2 -163 3 l-150 1 0 160 0 160 -152 1 c-84 1 -159 1 -165 0 -10
-1 -13 37 -13 164 l0 165 -165 0 -165 0 0 165 0 165 -165 0 -165 0 0 165 0
165 -165 0 -165 0 0 165 0 165 -165 0 -165 0 0 165 0 165 -165 0 -165 0 0
2795 0 2795 -162 2 -163 3 -3 163 -2 162 -3950 0 -3950 0 0 -165z m7900 -2795
l0 -2630 -660 -1 c-363 0 -1769 0 -3125 0 -1356 0 -2762 0 -3125 0 l-660 1 0
2630 0 2630 3785 0 3785 0 0 -2630z m328 -3127 l2 -163 165 0 165 0 0 -165 0
-165 165 0 165 0 0 -165 0 -165 165 0 165 0 0 -165 0 -165 160 0 160 0 2 -162
3 -163 162 -3 163 -2 2 -163 3 -162 162 -3 163 -2 2 -163 3 -162 162 -3 163
-2 2 -163 3 -162 163 -3 162 -2 0 -165 0 -165 -1645 0 -1645 0 0 -160 0 -160
-165 0 -165 0 0 160 0 160 -2137 2 -2138 3 -3 162 -2 163 -163 2 -162 3 -3
162 -2 163 -163 2 -162 3 -3 162 -2 163 -163 2 -162 3 -3 163 -2 162 -160 0
-160 0 0 165 0 165 -165 0 -165 0 0 165 0 165 -165 0 -165 0 0 165 0 165 -165
0 -165 0 0 165 0 165 -165 0 -165 0 0 165 0 165 3948 -2 3947 -3 3 -162z"/>
<path d="M4830 11570 l0 -2140 165 0 165 0 2 -162 3 -163 3120 0 3120 0 3 163
2 162 165 0 165 0 0 2140 0 2140 -3455 0 -3455 0 0 -2140z m5590 1155 l0 -325
-325 0 -325 0 0 325 0 325 325 0 325 0 0 -325z m0 -825 l0 -160 -160 0 -160 0
0 160 0 160 160 0 160 0 0 -160z"/>
<path d="M5820 7955 l0 -165 163 -2 162 -3 3 -162 2 -163 163 -2 162 -3 1
-160 0 -160 165 -5 164 -5 0 -160 1 -160 162 -3 162 -2 2 -163 3 -162 3125 0
3125 0 3 163 2 162 -165 0 -165 0 0 165 0 165 -165 0 -165 0 0 165 0 165 -165
0 -165 0 0 165 0 165 -165 0 -165 0 0 165 0 165 -3125 0 -3125 0 0 -165z
m1310 -330 l0 -165 165 0 165 0 0 -165 0 -165 165 0 165 0 0 -165 0 -165 -165
0 -165 0 0 165 0 165 -165 0 -165 0 0 165 0 165 -165 0 -165 0 0 158 c0 87 3
162 7 165 3 4 78 7 165 7 l158 0 0 -165z m990 0 l0 -165 165 0 165 0 0 -165 0
-165 165 0 165 0 0 -165 0 -165 -165 0 -165 0 0 165 0 165 -165 0 -165 0 0
165 0 165 -165 0 -165 0 0 165 0 165 165 0 165 0 0 -165z m990 0 l0 -165 -165
0 -165 0 0 165 0 165 165 0 165 0 0 -165z m985 0 l0 -160 -162 -3 -163 -2 0
165 0 165 163 -2 162 -3 0 -160z m985 0 l0 -165 165 0 165 0 0 -165 0 -165
165 0 165 0 0 -165 0 -165 -165 0 -165 0 0 165 0 165 -165 0 -165 0 0 -165 0
-165 -985 0 -985 0 0 165 0 165 985 0 985 0 0 165 0 165 -165 0 -165 0 0 165
0 165 165 0 165 0 0 -165z m990 0 l0 -165 165 0 165 0 0 -165 0 -165 165 0
165 0 0 -165 0 -165 -165 0 -165 0 0 165 0 165 -165 0 -165 0 0 165 0 165
-165 0 -165 0 0 165 0 165 165 0 165 0 0 -165z"/>
<path d="M10102 5978 l3 -161 980 0 980 0 3 162 2 161 -985 0 -985 0 2 -162z"/>
</g>
</svg>
