<?xml version="1.0" standalone="no"?>
<!DOCTYPE svg PUBLIC "-//W3C//DTD SVG 20010904//EN"
 "http://www.w3.org/TR/2001/REC-SVG-20010904/DTD/svg10.dtd">
<svg version="1.0" xmlns="http://www.w3.org/2000/svg"
 width="1920.000000pt" height="1920.000000pt" viewBox="0 0 1920.000000 1920.000000"
 preserveAspectRatio="xMidYMid meet">

<g transform="translate(0.000000,1920.000000) scale(0.100000,-0.100000)"
fill="#000000" stroke="none">
<path d="M6930 15585 l0 -124 -127 -3 -128 -3 -3 -127 -3 -128 -124 0 -125 0
0 -510 0 -510 125 0 125 0 0 -4580 0 -4580 -125 0 -125 0 0 -385 0 -385 125 0
125 0 0 -125 0 -125 130 0 130 0 0 -130 0 -130 125 0 125 0 0 -125 0 -125
2420 0 2420 0 0 125 0 124 128 3 127 3 3 128 3 127 124 0 125 0 0 125 0 124
128 3 127 3 3 383 2 382 -130 0 -130 0 2 4578 3 4577 128 3 127 3 0 509 0 510
-130 0 -130 0 0 130 0 130 -125 0 -125 0 0 125 0 125 -2675 0 -2675 0 0 -125z
m5598 -1022 l2 -383 -130 0 -130 0 0 -380 0 -380 -125 0 -125 0 0 -130 0 -130
-255 0 -255 0 0 -125 0 -125 -1780 0 -1780 0 0 250 0 250 1778 2 1777 3 3 128
3 127 255 0 255 0 -3 128 -3 127 -250 0 -250 0 -5 -125 -5 -125 -630 -3 c-346
-2 -1202 0 -1901 4 l-1272 6 -7 249 -7 249 -124 0 -124 0 0 125 0 125 2163 2
2162 3 3 128 3 127 249 0 250 0 0 123 c0 68 3 127 7 131 4 3 61 5 127 4 l121
-3 3 -382z m-5348 -768 l0 -125 255 0 255 0 0 -250 0 -250 -250 0 -250 0 0
125 0 125 -130 0 -130 0 0 250 0 250 125 0 125 0 0 -125z m510 -1785 l0 -890
125 0 125 0 0 -125 0 -125 130 0 129 0 3 -127 3 -128 123 -3 122 -3 0 -124 0
-125 130 0 130 0 0 -127 0 -128 125 3 125 3 0 -511 0 -511 -125 3 -125 3 0
-127 0 -128 130 0 130 0 0 125 0 125 125 0 125 0 0 510 0 510 -92 1 c-51 1
-106 2 -123 3 l-30 1 -5 125 -5 125 -125 5 -125 5 0 120 0 120 -127 3 -128 3
0 124 0 124 -127 3 -128 3 -3 128 -3 127 -124 0 -125 0 0 760 0 760 125 0 125
0 0 -380 0 -380 380 0 380 0 0 -125 0 -125 640 0 640 0 0 125 0 125 380 0 380
0 0 255 0 255 123 0 124 0 7 -625 c4 -344 4 -630 1 -635 -4 -6 -60 -10 -131
-10 l-124 0 0 -130 0 -130 -125 0 -125 0 0 -125 0 -125 -130 0 -130 0 0 -123
0 -124 -187 -6 c-104 -4 -275 -7 -380 -7 l-193 0 0 -1525 0 -1525 125 0 124 0
3 -127 3 -128 115 -2 c63 -1 121 -2 128 -2 9 -1 12 -33 12 -126 l0 -125 253 2
252 3 3 128 3 127 124 0 125 0 0 505 0 505 130 0 130 0 0 -243 c0 -134 -3
-420 -7 -635 l-6 -392 -124 0 -123 0 0 -255 0 -255 -125 0 -125 0 0 -125 0
-125 -255 0 -255 0 0 -123 0 -124 -382 -6 c-488 -9 -951 -9 -1201 0 l-197 6 0
124 0 123 -125 0 -124 0 -3 128 -3 127 -127 3 -128 3 0 884 0 885 125 0 125 0
0 130 0 130 -130 0 -130 0 0 -125 0 -125 -125 0 -125 0 0 -765 0 -765 -125 0
-125 0 0 3175 0 3175 125 0 125 0 0 -890z m4070 -2285 l0 -3175 -120 0 -120 0
-1 730 c-1 402 -2 745 -3 763 l-1 32 -127 3 -128 3 0 124 0 125 -125 0 -124 0
-3 128 -3 127 -127 3 -128 3 0 124 0 125 -125 0 -125 0 0 125 0 124 -127 3
-128 3 0 505 c0 442 2 505 15 506 8 1 66 2 128 3 l112 1 0 125 0 125 125 0
125 0 0 125 0 124 128 3 127 3 3 128 3 127 124 0 125 0 0 125 0 124 128 3 127
3 0 887 0 888 123 0 122 0 0 -3175z m510 5 l0 -2670 -125 0 -125 0 0 2670 0
2670 125 0 125 0 0 -2670z m-2038 -765 l3 -125 -127 0 -128 0 0 125 0 125 124
0 125 0 3 -125z m258 -260 l0 -125 130 0 130 0 0 -130 0 -130 125 0 125 0 0
-119 0 -120 -112 -3 c-62 -2 -233 -5 -380 -6 l-268 -3 0 381 0 380 125 0 125
0 0 -125z m1780 -3181 l0 -254 -125 0 -125 0 0 -125 0 -125 255 0 255 0 0
-380 0 -379 -127 -3 -128 -3 -3 -127 -3 -128 -124 0 -125 0 0 -125 0 -125
-2290 0 -2290 0 0 256 0 255 125 -3 124 -3 3 125 3 125 1908 3 1907 2 0 123 0
124 -187 6 c-104 4 -963 7 -1910 7 l-1723 0 0 125 0 125 -250 0 -250 0 0 130
0 130 -130 0 -130 0 0 250 0 250 125 0 125 0 0 -125 0 -125 255 0 255 0 0
-255 0 -255 130 0 130 0 0 125 0 125 1463 0 c804 0 1546 3 1650 7 l187 6 0
123 0 124 383 2 382 3 3 122 3 122 27 3 c15 2 71 2 125 0 l97 -3 0 -255z"/>
<path d="M8450 8715 l0 -124 -122 -3 -123 -3 -3 -127 -3 -128 131 0 130 0 0
125 0 125 125 0 125 0 0 130 0 130 -130 0 -130 0 0 -125z"/>
<path d="M9227 8834 c-4 -4 -7 -63 -7 -130 l0 -124 -251 -2 -250 -3 -2 -125
-2 -125 -127 -3 -128 -3 0 -249 0 -249 -127 -3 -128 -3 0 -505 0 -505 253 -3
252 -2 0 125 0 124 128 3 127 3 3 128 3 127 124 0 125 0 0 130 0 130 125 0
125 0 -2 633 -3 632 -116 3 c-63 1 -118 -1 -122 -4z m-262 -889 l0 -120 -127
-3 -128 -3 0 128 0 128 127 -5 128 -5 0 -120z"/>
<path d="M11770 4895 l0 -125 125 0 125 0 0 125 0 125 -125 0 -125 0 0 -125z"/>
</g>
</svg>
