<?xml version="1.0" standalone="no"?>
<!DOCTYPE svg PUBLIC "-//W3C//DTD SVG 20010904//EN"
 "http://www.w3.org/TR/2001/REC-SVG-20010904/DTD/svg10.dtd">
<svg version="1.0" xmlns="http://www.w3.org/2000/svg"
 width="1920.000000pt" height="1920.000000pt" viewBox="0 0 1920.000000 1920.000000"
 preserveAspectRatio="xMidYMid meet">

<g transform="translate(0.000000,1920.000000) scale(0.100000,-0.100000)"
fill="#000000" stroke="none">
<path d="M9000 17700 l0 -300 -300 0 -300 0 0 -300 0 -300 300 0 300 0 0 300
0 300 600 0 600 0 0 -305 0 -305 -600 0 -600 0 0 -300 0 -300 -300 0 -300 0 0
-595 0 -595 -300 0 -300 0 -2 598 -3 597 -295 0 -295 0 -3 -897 -2 -898 2400
0 2400 0 -2 898 -3 897 -295 0 -295 0 -5 300 -5 300 -297 3 -298 2 0 300 0
300 -300 0 -300 0 -2 298 -3 297 -597 3 -598 2 0 -300z"/>
<path d="M7807 16793 c-4 -3 -7 -138 -7 -300 l0 -293 300 0 300 0 -2 298 -3
297 -291 3 c-160 1 -293 -1 -297 -5z"/>
<path d="M9000 13500 l0 -300 -300 0 -300 0 0 -600 0 -600 300 0 300 0 0 600
0 600 600 0 600 0 0 -600 0 -600 300 0 300 0 0 600 0 600 -300 0 -300 0 -2
298 -3 297 -597 3 -598 2 0 -300z"/>
<path d="M6600 12300 l0 -300 -300 0 -300 0 0 -300 0 -300 -300 0 -300 0 0
-1500 0 -1500 300 0 300 0 0 300 0 300 300 0 300 0 0 300 0 300 300 0 300 0 0
894 c0 806 -2 894 -16 900 -20 8 -548 8 -568 0 -14 -6 -16 -68 -16 -605 l0
-599 -297 2 -298 3 -3 603 -2 602 300 0 300 0 0 300 0 300 300 0 300 0 0 300
0 300 -300 0 -300 0 0 -300z"/>
<path d="M12000 11100 l0 -1500 300 0 300 0 0 -300 0 -300 300 0 300 0 0 -300
0 -300 300 0 300 0 -2 1498 -3 1497 -297 3 -298 2 0 300 0 300 -300 0 -300 0
0 300 0 300 -300 0 -300 0 0 -1500z"/>
<path d="M9000 11695 l0 -295 600 0 600 0 0 295 0 295 -600 0 -600 0 0 -295z"/>
<path d="M7800 9000 l0 -600 300 0 300 0 0 -300 0 -300 1200 0 1200 0 0 300 0
300 298 2 297 3 3 598 2 597 -1800 0 -1800 0 0 -600z"/>
</g>
</svg>
